<mxfile host="65bd71144e">
    <diagram id="WiBhJWAya96nknREC-Ra" name="ページ1">
        <mxGraphModel dx="910" dy="731" grid="1" gridSize="10" guides="1" tooltips="1" connect="1" arrows="1" fold="1" page="1" pageScale="1" pageWidth="827" pageHeight="1169" math="0" shadow="0">
            <root>
                <mxCell id="0"/>
                <mxCell id="1" parent="0"/>
                <mxCell id="9" value="" style="ellipse;whiteSpace=wrap;html=1;aspect=fixed;fillColor=none;strokeWidth=64;labelBorderColor=none;labelBackgroundColor=none;shadow=0;strokeColor=#000000;gradientColor=none;" parent="1" vertex="1">
                    <mxGeometry x="150" y="120" width="423" height="423" as="geometry"/>
                </mxCell>
                <mxCell id="10" value="" style="endArrow=none;html=1;endSize=6;jumpSize=7;strokeWidth=80;exitX=0.286;exitY=0.046;exitDx=0;exitDy=0;exitPerimeter=0;entryX=0.284;entryY=0.922;entryDx=0;entryDy=0;entryPerimeter=0;" parent="1" edge="1">
                    <mxGeometry width="50" height="50" relative="1" as="geometry">
                        <mxPoint x="292.97799999999984" y="139.45800000000008" as="sourcePoint"/>
                        <mxPoint x="292.13200000000006" y="510.0060000000001" as="targetPoint"/>
                    </mxGeometry>
                </mxCell>
                <mxCell id="11" value="" style="endArrow=none;html=1;endSize=6;jumpSize=7;strokeWidth=80;exitX=0.804;exitY=0.095;exitDx=0;exitDy=0;exitPerimeter=0;" parent="1" edge="1">
                    <mxGeometry width="50" height="50" relative="1" as="geometry">
                        <mxPoint x="512.0919999999999" y="160.18499999999995" as="sourcePoint"/>
                        <mxPoint x="332" y="340" as="targetPoint"/>
                    </mxGeometry>
                </mxCell>
                <mxCell id="12" value="" style="endArrow=none;html=1;endSize=6;jumpSize=7;strokeWidth=80;exitX=0.78;exitY=0.875;exitDx=0;exitDy=0;exitPerimeter=0;" parent="1" edge="1">
                    <mxGeometry width="50" height="50" relative="1" as="geometry">
                        <mxPoint x="501.94000000000005" y="490.125" as="sourcePoint"/>
                        <mxPoint x="332" y="310" as="targetPoint"/>
                    </mxGeometry>
                </mxCell>
            </root>
        </mxGraphModel>
    </diagram>
</mxfile>